<svg width="99" height="26" viewBox="0 0 99 26" fill="none" xmlns="http://www.w3.org/2000/svg">
<path fill-rule="evenodd" clip-rule="evenodd" d="M63.1734 0L64.7796 6.68086L63.1211 6.19003L60.994 13.5407H60.9945L60.9588 13.6623L58.5827 21.8735L58.5487 21.8633L57.4196 25.7057H54.1629L51.5674 16.6064L48.9719 25.7057H45.7153L42.1648 13.5407H45.2745L47.3803 22.2965L49.8289 13.5407H53.3059L55.7545 22.2965L56.0431 21.1104L56.032 21.107L57.128 16.6511L57.8848 13.5407H57.8931L59.9332 5.24663L58.2002 4.73376L63.1734 0ZM3.81981 24.8963C5.02778 25.6321 6.43981 26 8.05588 26C9.34547 26 10.4065 25.7793 11.2391 25.3378C12.0716 24.8963 12.7653 24.2668 13.3204 23.4493L13.5652 25.7057H16.4546V16.2631H8.96186V18.6176H13.2959C13.1326 19.9911 12.6511 21.1029 11.8512 21.9532C11.0677 22.7871 9.90049 23.204 8.34971 23.204C6.76629 23.204 5.50934 22.689 4.57887 21.6589C3.66473 20.6124 3.20766 19.1408 3.20766 17.2441C3.20766 15.3474 3.67289 13.8595 4.60336 12.7803C5.53383 11.6848 6.85607 11.1371 8.57009 11.1371C9.64747 11.1371 10.529 11.366 11.2146 11.8238C11.9002 12.2653 12.3736 12.8866 12.6348 13.6878H16.1362C15.7445 11.9873 14.8875 10.6547 13.5652 9.69003C12.243 8.72534 10.5779 8.24298 8.57009 8.24298C6.8071 8.24298 5.28081 8.62723 3.99121 9.39572C2.71794 10.1479 1.73034 11.2025 1.02841 12.5596C0.342803 13.9004 0 15.4537 0 17.2196C0 18.9691 0.334642 20.5061 1.00392 21.8305C1.67321 23.1386 2.61184 24.1605 3.81981 24.8963ZM19.4281 13.5407V25.7057H22.5623V20.1628C22.5623 19.2308 22.7092 18.5031 23.003 17.9799C23.3132 17.4567 23.7376 17.0888 24.2763 16.8762C24.815 16.6637 25.4271 16.5574 26.1127 16.5574H26.9942V13.2463C25.9658 13.2463 25.068 13.4834 24.3008 13.9576C23.5499 14.4154 22.9541 15.0368 22.5133 15.8216L22.2195 13.5407H19.4281ZM34.7488 26C33.5735 26 32.5124 25.7302 31.5657 25.1906C30.6352 24.6511 29.8924 23.9071 29.3374 22.9588C28.7987 21.9941 28.5294 20.8822 28.5294 19.6232C28.5294 18.3642 28.8069 17.2605 29.3619 16.3121C29.9169 15.3474 30.6597 14.5953 31.5901 14.0557C32.5369 13.5161 33.598 13.2463 34.7733 13.2463C35.9323 13.2463 36.977 13.5161 37.9075 14.0557C38.8543 14.5953 39.597 15.3474 40.1357 16.3121C40.6908 17.2605 40.9683 18.3642 40.9683 19.6232C40.9683 20.8822 40.6908 21.9941 40.1357 22.9588C39.597 23.9071 38.8543 24.6511 37.9075 25.1906C36.9607 25.7302 35.9078 26 34.7488 26ZM34.7488 23.2776C35.565 23.2776 36.2751 22.9751 36.8791 22.3701C37.4831 21.7488 37.7851 20.8331 37.7851 19.6232C37.7851 18.4132 37.4831 17.5057 36.8791 16.9008C36.2751 16.2794 35.5732 15.9688 34.7733 15.9688C33.9408 15.9688 33.2225 16.2794 32.6186 16.9008C32.0309 17.5057 31.7371 18.4132 31.7371 19.6232C31.7371 20.8331 32.0309 21.7488 32.6186 22.3701C33.2225 22.9751 33.9326 23.2776 34.7488 23.2776Z" fill="#00B37E"/>
<path d="M67.3303 25.7057V8.53728H78.398V11.0635H70.4645V15.8706H76.8798V18.3478H70.4645V25.7057H67.3303Z" fill="white"/>
<path d="M82.4328 11.6521C81.8615 11.6521 81.3881 11.4804 81.0126 11.1371C80.6535 10.7937 80.4739 10.3604 80.4739 9.83717C80.4739 9.31394 80.6535 8.88882 81.0126 8.5618C81.3881 8.21844 81.8615 8.04675 82.4328 8.04675C83.0041 8.04675 83.4694 8.21844 83.8285 8.5618C84.204 8.88882 84.3917 9.31394 84.3917 9.83717C84.3917 10.3604 84.204 10.7937 83.8285 11.1371C83.4694 11.4804 83.0041 11.6521 82.4328 11.6521ZM80.8657 25.7057V13.5406H83.9999V25.7057H80.8657Z" fill="white"/>
<path d="M86.1204 25.7057L90.5279 19.6232L86.1204 13.5406H89.475L92.5602 17.8573L95.621 13.5406H99L94.5681 19.6232L99 25.7057H95.621L92.5602 21.3891L89.475 25.7057H86.1204Z" fill="white"/>
</svg>
